<svg width="48" height="46" viewBox="0 0 48 46" fill="none" xmlns="http://www.w3.org/2000/svg">
<path d="M37.4177 44.24L37.3736 44.238L37.3294 44.2381C37.2282 44.2385 37.1279 44.215 37.0365 44.1688L24.7795 37.7125L23.9639 37.2829L23.1483 37.7125L10.8821 44.1736L10.8793 44.1751C10.7716 44.2321 10.651 44.2572 10.5309 44.2482C10.4109 44.2393 10.2947 44.1967 10.1958 44.1239L9.15891 45.5337L10.1958 44.1239C10.0968 44.0511 10.0186 43.9507 9.97174 43.8332C9.92481 43.7156 9.91146 43.5865 9.9336 43.4611L9.93361 43.4611L12.3387 29.837L12.4994 28.9268L11.8382 28.2809L1.94036 18.6123C1.85842 18.528 1.79924 18.4221 1.77017 18.3052C1.74172 18.1907 1.74343 18.0707 1.77489 17.9574C1.81494 17.8432 1.88421 17.7432 1.97435 17.6671C2.06845 17.5876 2.18165 17.5371 2.30084 17.5201L2.30678 17.5192L16.0161 15.5107L16.9315 15.3766L17.3362 14.5445L23.3731 2.13041L23.3731 2.13042L23.3761 2.12412C23.4311 2.01 23.5161 1.9153 23.6201 1.84971C23.724 1.7842 23.8431 1.75 23.9639 1.75C24.0847 1.75 24.2039 1.7842 24.3078 1.84971C24.4118 1.91529 24.4968 2.00999 24.5517 2.12413L24.5553 2.13158L24.559 2.139L30.668 14.5289L31.0745 15.3533L31.9839 15.4865L45.6932 17.495L45.6992 17.4959C45.8183 17.5129 45.9316 17.5634 46.0256 17.6429L47.1549 16.306L46.0257 17.6429C46.1158 17.719 46.1851 17.8191 46.2251 17.9332C46.2566 18.0465 46.2583 18.1665 46.2298 18.281L47.9282 18.703L46.2298 18.281C46.2008 18.398 46.1416 18.5038 46.0596 18.5882L36.1618 28.2567L35.5006 28.9026L35.6613 29.8128L38.0664 43.4369L38.0683 43.4475L38.0703 43.4581C38.0944 43.5857 38.0817 43.7175 38.034 43.8375C37.9874 43.9546 37.91 44.0546 37.8118 44.1275C37.6949 44.2075 37.5567 44.2465 37.4177 44.24Z" fill="#FEFEFE" stroke="#392925" stroke-width="3.5"/>
</svg>
