<svg width="73" height="70" viewBox="0 0 73 70" fill="none" xmlns="http://www.w3.org/2000/svg">
<path d="M56.6216 69.3165C56.0383 69.3188 55.4629 69.1812 54.9438 68.9152L36.3418 59.1766L17.7398 68.9152C17.1358 69.2329 16.4547 69.3747 15.7741 69.3245C15.0935 69.2743 14.4406 69.0342 13.8897 68.6315C13.3387 68.2287 12.9118 67.6795 12.6575 67.0462C12.4032 66.4128 12.3317 65.7209 12.451 65.049L16.0985 44.5138L1.071 29.924C0.602147 29.4562 0.269551 28.8695 0.108904 28.2269C-0.0517438 27.5843 -0.0343781 26.9101 0.159137 26.2766C0.370543 25.6284 0.759421 25.0523 1.28164 24.6139C1.80386 24.1755 2.43851 23.8923 3.11357 23.7963L23.904 20.769L33.0591 2.05756C33.3578 1.44088 33.8241 0.920806 34.4047 0.556906C34.9853 0.193005 35.6566 0 36.3418 0C37.027 0 37.6983 0.193005 38.2789 0.556906C38.8595 0.920806 39.3258 1.44088 39.6245 2.05756L48.889 20.7325L69.6795 23.7599C70.3545 23.8558 70.9892 24.1391 71.5114 24.5775C72.0336 25.0159 72.4225 25.5919 72.6339 26.2401C72.8274 26.8736 72.8448 27.5478 72.6841 28.1904C72.5235 28.833 72.1909 29.4197 71.722 29.8876L56.6945 44.4774L60.342 65.0125C60.4722 65.6963 60.404 66.4031 60.1455 67.0494C59.887 67.6957 59.4489 68.2545 58.883 68.6599C58.2225 69.1228 57.4273 69.3537 56.6216 69.3165Z" fill="#FEFEFE"/>
</svg>
