<svg width="95" height="95" viewBox="0 0 95 95" fill="none" xmlns="http://www.w3.org/2000/svg">
<path d="M47.7693 39.0155C69.654 39.0155 67.9032 91.5387 34.6385 91.5387M49.133 56.5232C27.2484 56.5232 28.9992 4 62.2638 4M41.7788 42.0622C57.2539 26.5872 93.1553 64.9649 69.6337 88.4866M55.1233 53.4766C39.6487 68.9517 3.74694 30.5741 27.2686 7.05242M42.7429 54.4405C27.268 38.9656 65.6456 3.06414 89.1673 26.5858M54.1595 41.0982C69.6346 56.5728 31.257 92.4746 7.73525 68.953M39.0155 49.133C39.0155 27.2484 91.5387 28.9992 91.5387 62.2638M56.5232 47.7693C56.5232 69.654 4 67.9032 4 34.6385" stroke="#392925" stroke-width="6.5654" stroke-linecap="round"/>
</svg>
