<svg width="46" height="46" viewBox="0 0 46 46" fill="none" xmlns="http://www.w3.org/2000/svg">
<path d="M23 18.6C34 18.6 33.12 45 16.4 45M23.6854 27.4C12.6855 27.4 13.5655 1 30.2854 1M19.989 20.1314C27.7673 12.3531 45.8126 31.6431 33.9898 43.4659M26.6964 25.8687C18.9183 33.647 0.872803 14.3571 12.6956 2.53425M20.4735 26.3532C12.6953 18.575 31.9852 0.529602 43.808 12.3524M26.2119 19.6468C33.9902 27.4249 14.7003 45.4704 2.87747 33.6476M18.6 23.6854C18.6 12.6855 45 13.5655 45 30.2854M27.4 23C27.4 34 1 33.12 1 16.4" stroke="#F5E7C9" stroke-width="2" stroke-linecap="round"/>
</svg>
