<svg width="88" height="61" viewBox="0 0 88 61" fill="none" xmlns="http://www.w3.org/2000/svg">
<path d="M13.8495 33.2915C15.4499 48.3874 28.2563 60.185 43.7711 60.185C47.9829 60.1897 52.1483 59.3046 55.9944 57.5878C49.1039 54.7615 41.6236 51.0615 34.1483 46.7545C26.844 42.5501 19.8065 37.8721 13.8495 33.2915Z" fill="#AE7C6E"/>
<path d="M84.2455 44.3711C82.7921 42.4373 80.8259 40.3017 78.4322 38.0448C77.9754 40.0336 77.3461 41.9787 76.5514 43.8581C81.4619 48.902 82.2279 51.6104 82.0518 52.1421C81.7098 52.5234 79.1366 53.3202 72.1093 51.5385C71.1028 51.2832 70.0017 50.972 68.806 50.605C68.0354 50.3679 67.2495 50.112 66.4482 49.8373C67.7069 48.3936 68.8256 46.8335 69.7891 45.1781C69.8182 45.1285 69.849 45.0789 69.878 45.0276C72.4888 40.4831 73.863 35.3336 73.8636 30.0925C73.8642 29.0074 73.8072 27.923 73.6926 26.8439C72.0563 11.7686 59.2619 4.74863e-06 43.7711 4.74863e-06C37.1983 -0.00369308 30.8064 2.15237 25.5788 6.13648C22.4103 8.54804 19.7477 11.5599 17.7428 15.0001C17.7154 15.0497 17.6846 15.0993 17.6556 15.1488C16.7027 16.8089 15.9109 18.5563 15.2909 20.3672C14.6537 19.812 14.0388 19.2609 13.446 18.7138C12.5244 17.8589 11.7072 17.0672 10.9805 16.3201C5.92461 11.1462 5.32276 8.52165 5.48177 8.03607C5.85109 7.62059 8.57651 6.91786 15.4208 8.64305C16.6569 7.01521 18.0297 5.49594 19.5244 4.10182C16.2997 3.14262 13.405 2.50315 10.9668 2.22104C5.7126 1.61919 2.27419 2.65362 0.743913 5.30039C0.189938 6.25446 -0.34181 7.88048 0.278847 10.1904C1.19701 13.6203 4.46957 17.7819 9.10142 22.1419C10.577 23.532 12.1893 24.9409 13.9094 26.3549C15.161 27.3808 16.4741 28.4169 17.8248 29.4462C18.7265 30.1301 19.6469 30.814 20.5862 31.498C21.5254 32.1819 22.4772 32.8533 23.4415 33.5121C27.7861 36.5231 32.3769 39.4143 36.8789 42.0081C38.5134 42.9496 40.1457 43.8615 41.7757 44.7438C43.4057 45.6261 45.0226 46.4701 46.6264 47.276C50.3709 49.1568 54.0384 50.8529 57.5452 52.308C59.0487 52.9326 60.5197 53.5117 61.9582 54.0451C63.9912 54.8008 65.954 55.466 67.8245 56.0268L68.0126 56.0832C72.4119 57.3929 76.1205 58.082 79.0374 58.135H79.3349C83.0349 58.135 85.5415 57.0441 86.7862 54.8863C88.3404 52.2156 87.4838 48.6763 84.2455 44.3711Z" fill="#AE7C6E"/>
</svg>
