<svg width="61" height="42" viewBox="0 0 61 42" fill="none" xmlns="http://www.w3.org/2000/svg">
<path d="M10.6673 24.9413C10.3712 24.7213 10.0783 24.5015 9.78877 24.2818C11.3653 34.3087 20.0517 42 30.5012 42C33.0833 42.0029 35.6403 41.5252 38.0428 40.5944C37.7081 40.454 37.3715 40.3108 37.0332 40.1648M10.6673 24.9413C12.5023 34.228 20.6988 41.25 30.5012 41.25H30.502C32.7281 41.2525 34.9349 40.8844 37.0332 40.1648M10.6673 24.9413C10.5972 24.5868 10.5365 24.229 10.4852 23.8682C14.4521 26.8599 19.0429 29.8878 23.7957 32.6275M10.6673 24.9413C14.512 27.7974 18.8944 30.6679 23.4209 33.2772M37.0332 40.1648C37.3757 40.0473 37.7153 39.9205 38.0516 39.7843C33.5212 37.8685 28.6569 35.4325 23.7957 32.6275M37.0332 40.1648C32.6802 38.2858 28.0473 35.9466 23.4209 33.2772M23.4209 33.2772C23.421 33.2772 23.4211 33.2773 23.4212 33.2773L23.7957 32.6275M23.4209 33.2772L23.7957 32.6275M58.1055 31.4147L58.1053 31.4144C57.315 30.3614 56.2911 29.2087 55.0596 27.9855C54.8229 28.8171 54.5437 29.6362 54.223 30.4394C55.7595 32.0615 56.6947 33.3466 57.2411 34.3066C57.5336 34.8204 57.7218 35.2534 57.8283 35.6047C57.8815 35.7801 57.918 35.9468 57.9336 36.1011C57.9477 36.2403 57.9518 36.4317 57.8886 36.6228L57.8395 36.7712L57.7352 36.8876C57.6089 37.0287 57.4518 37.1182 57.3302 37.1754C57.1953 37.2388 57.0391 37.292 56.8654 37.3358C56.5176 37.4235 56.0582 37.4835 55.471 37.4926C54.2957 37.5108 52.5548 37.3255 50.0637 36.693L50.0636 36.693C49.3481 36.5112 48.5688 36.2906 47.726 36.0315L47.7255 36.0313C47.1806 35.8634 46.6254 35.6824 46.0598 35.4882L45.0063 35.1265L45.7377 34.2864C46.5837 33.3147 47.3355 32.2648 47.983 31.1506L47.9842 31.1485C48.0016 31.1189 48.0108 31.1036 48.018 31.0918C48.0255 31.0793 48.0307 31.0707 48.0407 31.0531L48.0429 31.0492C49.797 27.9914 50.7203 24.5266 50.7207 20.9999V20.9995C50.7212 20.2689 50.6828 19.5388 50.6058 18.8123C49.5055 8.66766 40.9065 0.750003 30.5012 0.750003H30.5008C26.0853 0.747515 21.7913 2.19802 18.2792 4.87852L18.2788 4.87882C16.1511 6.50058 14.3627 8.52572 13.0156 10.8389C12.9962 10.8735 12.9705 10.9165 12.9576 10.9382C12.955 10.9424 12.953 10.9459 12.9516 10.9483C12.3123 12.0641 11.781 13.2386 11.3649 14.4558L11.0037 15.5125L10.1622 14.7783C9.71299 14.3864 9.27911 13.997 8.86055 13.6101L8.85919 13.6089C8.21039 13.0061 7.63147 12.4447 7.11417 11.9121C5.32221 10.0755 4.29092 8.6628 3.7182 7.63722C3.43202 7.12475 3.25375 6.69722 3.15526 6.35248C3.1061 6.18038 3.07384 6.01859 3.06101 5.87017C3.04945 5.73649 3.04803 5.55531 3.10703 5.37486L3.15548 5.22668L3.25897 5.11009C3.39245 4.95971 3.5599 4.86747 3.68691 4.81008C3.82781 4.7464 3.99004 4.69436 4.16817 4.65245C4.52515 4.56847 4.99384 4.51405 5.58515 4.50957C6.69012 4.5012 8.27262 4.66699 10.451 5.18685C10.9878 4.50641 11.5584 3.85363 12.1606 3.23099C10.4379 2.76449 8.8885 2.44943 7.55622 2.29502C3.9595 1.8825 1.99523 2.64083 1.16791 4.07385L1.16721 4.07506C0.870155 4.5874 0.543344 5.51803 0.918691 6.91702L0.918871 6.91769C1.49974 9.09072 3.63627 11.8702 6.85664 14.906L6.85686 14.9062C7.87089 15.8628 8.9814 16.8348 10.169 17.8125C11.0334 18.522 11.941 19.2392 12.8752 19.9522C13.4993 20.4263 14.1366 20.9005 14.787 21.3748C15.4355 21.8476 16.0926 22.3118 16.7584 22.7674L16.7625 22.7702C19.772 24.859 22.9534 26.8655 26.0733 28.6657C27.2066 29.3194 28.3383 29.9526 29.4682 30.565C30.5975 31.1772 31.7175 31.7627 32.828 32.3215C35.4237 33.6272 37.9628 34.803 40.3873 35.8104L40.3876 35.8106C41.4269 36.243 42.4429 36.6435 43.4357 37.0122L43.4363 37.0124C44.8401 37.535 46.1924 37.9938 47.4782 38.3799L47.4783 38.3799L47.6078 38.4188L58.1055 31.4147ZM58.1055 31.4147C60.3258 34.3708 60.6665 36.4812 59.8272 37.9255L59.8258 37.928M58.1055 31.4147L59.8258 37.928M59.8258 37.928C59.1507 39.0999 57.7358 39.8194 55.2833 39.8194H55.0828M59.8258 37.928L55.0828 39.8194M55.0828 39.8194C53.1466 39.7832 50.638 39.3221 47.6094 38.4193L55.0828 39.8194ZM48.6552 31.4875C48.668 31.4661 48.681 31.4445 48.6934 31.4224L48.6315 31.5274L48.6491 31.4976L48.6552 31.4875Z" fill="#AE7C6E" stroke="#F5E7C9" stroke-width="1.5"/>
</svg>
