<svg width="32" height="32" viewBox="0 0 32 32" fill="none" xmlns="http://www.w3.org/2000/svg">
<path d="M11.3315 6.05827C9.78418 6.11845 8.38694 6.67045 7.63947 7.4181C7.29236 7.7653 6.72952 7.7653 6.3824 7.41819C6.0352 7.07116 6.03512 6.50832 6.38223 6.16112C7.53547 5.0077 9.41227 4.35383 11.2623 4.28183C13.1245 4.20938 15.1574 4.71925 16.5812 6.14325C16.9282 6.49036 16.9282 7.05321 16.581 7.40032C16.2339 7.74743 15.671 7.74734 15.3239 7.40023C14.3541 6.43019 12.8666 5.99854 11.3315 6.05827Z" fill="#392925"/>
<path fill-rule="evenodd" clip-rule="evenodd" d="M20.3871 19.0081C22.0867 16.9962 23.1111 14.3955 23.1111 11.5556C23.1111 5.1736 17.9375 0 11.5556 0C5.1736 0 0 5.1736 0 11.5556C0 17.9375 5.1736 23.1111 11.5556 23.1111C14.3955 23.1111 16.9962 22.0867 19.0081 20.3871L18.6667 22.3504L25.3455 29.0293L29.0293 25.3455L22.3504 18.6667L20.3871 19.0081ZM11.5556 20.4445C16.4647 20.4445 20.4445 16.4647 20.4445 11.5556C20.4445 6.6464 16.4647 2.66667 11.5556 2.66667C6.6464 2.66667 2.66667 6.6464 2.66667 11.5556C2.66667 16.4647 6.6464 20.4445 11.5556 20.4445Z" fill="#392925"/>
<path d="M26.6027 30.2863L30.2864 26.6025L31.4915 27.8077C32.1696 28.4858 32.1696 29.5853 31.4915 30.2634L30.2636 31.4913C29.5854 32.1695 28.486 32.1695 27.8078 31.4913L26.6027 30.2863Z" fill="#392925"/>
</svg>
